<?xml version="1.0" encoding="UTF-8"?>
<svg width="1224px" height="217px" viewBox="0 0 1224 217" version="1.1" xmlns="http://www.w3.org/2000/svg" xmlns:xlink="http://www.w3.org/1999/xlink">
    <!-- Generator: Sketch 60 (88103) - https://sketch.com -->
    <title>inventory_logo</title>
    <desc>Created with Sketch.</desc>
    <g id="Page-1" stroke="none" stroke-width="1" fill="none" fill-rule="evenodd">
        <g id="inventory_logo" transform="translate(0.000000, 4.000000)" fill-rule="nonzero">
            <g id="Group" transform="translate(0.000000, 7.000000)">
                <ellipse id="Oval-Copy-16" fill="#1C2D41" cx="20.3597884" cy="19.5238095" rx="20.3597884" ry="19.5238095"></ellipse>
                <ellipse id="Oval-Copy-17" fill="#1C2D41" cx="187.640212" cy="130.15873" rx="20.3597884" ry="19.5238095"></ellipse>
                <rect id="Rectangle-Copy-30" fill="#02B67C" x="62.7301587" y="0" width="145.269841" height="39.047619" rx="19.5238095"></rect>
                <rect id="Rectangle-Copy-31" fill="#FF1E59" x="0" y="165.952381" width="208" height="39.047619" rx="19.5238095"></rect>
                <rect id="Rectangle-Copy-32" fill="#027AFF" x="0" y="55.3174603" width="83.0899471" height="39.047619" rx="19.5238095"></rect>
                <rect id="Rectangle-Copy-33" fill="#804DDF" x="104.550265" y="55.3174603" width="103.449735" height="39.047619" rx="19.5238095"></rect>
                <rect id="Rectangle-Copy-34" fill="#FFB02F" x="0" y="110.634921" width="145.269841" height="39.047619" rx="19.5238095"></rect>
            </g>
            <path d="M263.378,32.514 C267.902,32.514 271.49,31.266 274.142,28.77 C276.794,26.274 278.12,22.998 278.12,18.942 L278.12,18.942 L278.12,14.028 C278.12,9.972 276.794,6.657 274.142,4.083 C271.49,1.509 267.902,0.222 263.378,0.222 C258.854,0.222 255.266,1.509 252.614,4.083 C249.962,6.657 248.636,9.972 248.636,14.028 L248.636,14.028 L248.636,18.942 C248.636,22.998 249.962,26.274 252.614,28.77 C255.266,31.266 258.854,32.514 263.378,32.514 Z M263.378,169.404 C267.434,169.404 270.593,168.195 272.855,165.777 C275.117,163.359 276.248,159.966 276.248,155.598 L276.248,155.598 L276.248,62.232 C276.248,58.02 275.117,54.705 272.855,52.287 C270.593,49.869 267.434,48.66 263.378,48.66 C259.322,48.66 256.163,49.869 253.901,52.287 C251.639,54.705 250.508,58.02 250.508,62.232 L250.508,62.232 L250.508,155.598 C250.508,159.966 251.639,163.359 253.901,165.777 C256.163,168.195 259.322,169.404 263.378,169.404 Z M392.111429,169.404 C396.167429,169.404 399.326429,168.195 401.588429,165.777 C403.850429,163.359 404.981429,159.966 404.981429,155.598 L404.981429,155.598 L404.981429,97.8 C404.981429,82.044 400.574429,69.681 391.760429,60.711 C382.946429,51.741 370.739429,47.256 355.139429,47.256 C339.539429,47.256 327.332429,51.741 318.518429,60.711 C309.704429,69.681 305.297429,82.044 305.297429,97.8 L305.297429,97.8 L305.297429,155.598 C305.297429,159.966 306.428429,163.359 308.690429,165.777 C310.952429,168.195 314.111429,169.404 318.167429,169.404 C322.223429,169.404 325.382429,168.195 327.644429,165.777 C329.906429,163.359 331.037429,159.966 331.037429,155.598 L331.037429,155.598 L331.037429,98.97 C331.037429,89.61 333.104429,82.512 337.238429,77.676 C341.372429,72.84 347.339429,70.422 355.139429,70.422 C362.939429,70.422 368.906429,72.84 373.040429,77.676 C377.174429,82.512 379.241429,89.61 379.241429,98.97 L379.241429,98.97 L379.241429,155.598 C379.241429,159.966 380.372429,163.359 382.634429,165.777 C384.896429,168.195 388.055429,169.404 392.111429,169.404 Z M478.256857,169.404 C481.532857,169.404 484.418857,168.507 486.914857,166.713 C489.410857,164.919 491.282857,162.462 492.530857,159.342 L492.530857,159.342 L531.608857,66.678 C531.920857,65.898 532.154857,65.04 532.310857,64.104 C532.466857,63.168 532.544857,62.31 532.544857,61.53 C532.544857,57.474 531.413857,54.315 529.151857,52.053 C526.889857,49.791 523.808857,48.66 519.908857,48.66 C516.788857,48.66 514.331857,49.362 512.537857,50.766 C510.743857,52.17 509.378857,54.12 508.442857,56.616 L508.442857,56.616 L478.958857,132.9 L478.490857,132.9 L449.240857,56.616 C448.148857,53.964 446.627857,51.975 444.677857,50.649 C442.727857,49.323 440.114857,48.66 436.838857,48.66 C432.938857,48.66 429.857857,49.869 427.595857,52.287 C425.333857,54.705 424.202857,57.942 424.202857,61.998 C424.202857,63.714 424.592857,65.586 425.372857,67.614 L425.372857,67.614 L464.216857,159.342 C465.464857,162.462 467.297857,164.919 469.715857,166.713 C472.133857,168.507 474.980857,169.404 478.256857,169.404 Z M600.906286,170.808 C620.250286,170.808 634.368286,164.1 643.260286,150.684 C644.820286,148.344 645.600286,145.848 645.600286,143.196 C645.600286,139.296 644.469286,136.215 642.207286,133.953 C639.945286,131.691 636.864286,130.56 632.964286,130.56 C628.596286,130.56 625.164286,132.354 622.668286,135.942 C617.364286,143.742 610.110286,147.642 600.906286,147.642 C592.950286,147.642 586.788286,145.146 582.420286,140.154 C578.052286,135.162 575.868286,127.908 575.868286,118.392 L575.868286,118.392 L636.942286,118.392 C640.842286,118.392 643.884286,117.261 646.068286,114.999 C648.252286,112.737 649.344286,109.578 649.344286,105.522 L649.344286,105.522 L649.344286,98.97 C649.344286,82.902 645.015286,70.266 636.357286,61.062 C627.699286,51.858 615.570286,47.256 599.970286,47.256 C584.370286,47.256 572.163286,51.819 563.349286,60.945 C554.535286,70.071 550.128286,82.746 550.128286,98.97 L550.128286,98.97 L550.128286,118.86 C550.128286,135.24 554.574286,147.993 563.466286,157.119 C572.358286,166.245 584.838286,170.808 600.906286,170.808 Z M624.072286,96.864 L575.868286,96.864 C575.868286,88.44 578.052286,81.927 582.420286,77.325 C586.788286,72.723 592.638286,70.422 599.970286,70.422 C607.302286,70.422 613.152286,72.723 617.520286,77.325 C621.888286,81.927 624.072286,88.44 624.072286,96.864 L624.072286,96.864 Z M760.059714,169.404 C764.115714,169.404 767.274714,168.195 769.536714,165.777 C771.798714,163.359 772.929714,159.966 772.929714,155.598 L772.929714,155.598 L772.929714,97.8 C772.929714,82.044 768.522714,69.681 759.708714,60.711 C750.894714,51.741 738.687714,47.256 723.087714,47.256 C707.487714,47.256 695.280714,51.741 686.466714,60.711 C677.652714,69.681 673.245714,82.044 673.245714,97.8 L673.245714,97.8 L673.245714,155.598 C673.245714,159.966 674.376714,163.359 676.638714,165.777 C678.900714,168.195 682.059714,169.404 686.115714,169.404 C690.171714,169.404 693.330714,168.195 695.592714,165.777 C697.854714,163.359 698.985714,159.966 698.985714,155.598 L698.985714,155.598 L698.985714,98.97 C698.985714,89.61 701.052714,82.512 705.186714,77.676 C709.320714,72.84 715.287714,70.422 723.087714,70.422 C730.887714,70.422 736.854714,72.84 740.988714,77.676 C745.122714,82.512 747.189714,89.61 747.189714,98.97 L747.189714,98.97 L747.189714,155.598 C747.189714,159.966 748.320714,163.359 750.582714,165.777 C752.844714,168.195 756.003714,169.404 760.059714,169.404 Z M844.099143,170.808 C851.587143,170.808 858.100143,169.404 863.638143,166.596 C869.176143,163.788 873.271143,160.044 875.923143,155.364 C877.015143,153.336 877.561143,151.152 877.561143,148.812 C877.561143,145.224 876.508143,142.338 874.402143,140.154 C872.296143,137.97 869.449143,136.878 865.861143,136.878 C862.117143,136.878 859.153143,138.204 856.969143,140.856 C855.253143,143.04 853.498143,144.717 851.704143,145.887 C849.910143,147.057 847.687143,147.642 845.035143,147.642 C837.235143,147.642 833.335143,143.274 833.335143,134.538 L833.335143,134.538 L833.335143,72.528 L863.053143,72.528 C866.797143,72.528 869.761143,71.553 871.945143,69.603 C874.129143,67.653 875.221143,64.884 875.221143,61.296 C875.221143,57.708 874.129143,54.939 871.945143,52.989 C869.761143,51.039 866.797143,50.064 863.053143,50.064 L863.053143,50.064 L833.335143,50.064 L833.335143,29.238 C833.335143,24.87 832.243143,21.516 830.059143,19.176 C827.875143,16.836 824.755143,15.666 820.699143,15.666 C816.643143,15.666 813.445143,16.836 811.105143,19.176 C808.765143,21.516 807.595143,24.87 807.595143,29.238 L807.595143,29.238 L807.595143,50.064 L800.341143,50.064 C796.753143,50.064 793.867143,51.039 791.683143,52.989 C789.499143,54.939 788.407143,57.708 788.407143,61.296 C788.407143,64.884 789.499143,67.653 791.683143,69.603 C793.867143,71.553 796.753143,72.528 800.341143,72.528 L800.341143,72.528 L807.595143,72.528 L807.595143,134.538 C807.595143,146.394 810.754143,155.403 817.072143,161.565 C823.390143,167.727 832.399143,170.808 844.099143,170.808 Z M944.518572,170.808 C960.586572,170.808 973.105572,166.245 982.075572,157.119 C991.045572,147.993 995.530572,135.24 995.530572,118.86 L995.530572,118.86 L995.530572,98.97 C995.530572,82.746 991.045572,70.071 982.075572,60.945 C973.105572,51.819 960.586572,47.256 944.518572,47.256 C928.450572,47.256 915.931572,51.819 906.961572,60.945 C897.991572,70.071 893.506572,82.746 893.506572,98.97 L893.506572,98.97 L893.506572,118.86 C893.506572,135.24 897.991572,147.993 906.961572,157.119 C915.931572,166.245 928.450572,170.808 944.518572,170.808 Z M944.518572,147.642 C936.250572,147.642 929.971572,145.107 925.681572,140.037 C921.391572,134.967 919.246572,127.596 919.246572,117.924 L919.246572,117.924 L919.246572,100.14 C919.246572,90.468 921.391572,83.097 925.681572,78.027 C929.971572,72.957 936.250572,70.422 944.518572,70.422 C952.786572,70.422 959.065572,72.957 963.355572,78.027 C967.645572,83.097 969.790572,90.468 969.790572,100.14 L969.790572,100.14 L969.790572,117.924 C969.790572,127.596 967.645572,134.967 963.355572,140.037 C959.065572,145.107 952.786572,147.642 944.518572,147.642 Z M1034.174,169.404 C1038.23,169.404 1041.389,168.195 1043.651,165.777 C1045.913,163.359 1047.044,159.966 1047.044,155.598 L1047.044,155.598 L1047.044,90.78 C1047.044,84.228 1048.526,79.197 1051.49,75.687 C1054.454,72.177 1058.588,70.422 1063.892,70.422 C1067.636,70.422 1070.795,71.319 1073.369,73.113 C1075.943,74.907 1078.166,77.442 1080.038,80.718 C1082.534,84.93 1086.122,87.036 1090.802,87.036 C1094.546,87.036 1097.51,85.944 1099.694,83.76 C1101.878,81.576 1102.97,78.69 1102.97,75.102 C1102.97,72.918 1102.58,70.89 1101.8,69.018 C1098.836,61.998 1094.039,56.616 1087.409,52.872 C1080.779,49.128 1073.018,47.256 1064.126,47.256 C1050.554,47.256 1040.024,51 1032.536,58.488 C1025.048,65.976 1021.304,76.584 1021.304,90.312 L1021.304,90.312 L1021.304,155.598 C1021.304,159.966 1022.435,163.359 1024.697,165.777 C1026.959,168.195 1030.118,169.404 1034.174,169.404 Z M1147.22943,208.716 C1152.68943,208.716 1156.51143,206.454 1158.69543,201.93 L1158.69543,201.93 L1219.06743,66.678 C1219.69143,64.962 1220.00343,63.09 1220.00343,61.062 C1220.00343,57.006 1218.91143,53.925 1216.72743,51.819 C1214.54343,49.713 1211.50143,48.66 1207.60143,48.66 C1202.14143,48.66 1198.39743,51 1196.36943,55.68 L1196.36943,55.68 L1166.18343,126.114 L1165.71543,126.114 L1136.69943,56.616 C1135.60743,53.964 1134.08643,51.975 1132.13643,50.649 C1130.18643,49.323 1127.57343,48.66 1124.29743,48.66 C1120.39743,48.66 1117.31643,49.869 1115.05443,52.287 C1112.79243,54.705 1111.66143,58.02 1111.66143,62.232 C1111.66143,64.104 1112.05143,65.976 1112.83143,67.848 L1112.83143,67.848 L1151.90943,157.47 L1136.23143,188.358 C1134.98343,190.542 1134.35943,192.882 1134.35943,195.378 C1134.35943,199.59 1135.52943,202.866 1137.86943,205.206 C1140.20943,207.546 1143.32943,208.716 1147.22943,208.716 Z" id="inventory" stroke="#000000" stroke-width="7" fill="#000000"></path>
        </g>
    </g>
</svg>