<svg height="25" viewBox="0 0 209 25" width="209" xmlns="http://www.w3.org/2000/svg" xmlns:xlink="http://www.w3.org/1999/xlink"><mask id="a" fill="#fff"><path d="m0 .05041574h20.751962v24.20234496h-20.751962z" fill="#fff" fill-rule="evenodd"/></mask><g fill="none" fill-rule="evenodd"><g fill="#fecc04"><path d="m24 25h3v-24h-3z"/><path d="m24 25h3v-25h-3zm.3395458-.3281127h2.3211348v-24.3437746h-2.3211348z"/><path d="m46 9h2.7975748l5.1854377 12.8334585 5.1854377-12.8334585h2.8315498l-6.6523986 16h-2.7291778z"/><path d="m52.7696893 24.678977h2.4276715l6.3196629-15.35795401h-2.3940712l-5.1395358 12.85247661-5.1395359-12.85247661h-2.3615548zm2.6466149.321023h-2.8659919l-6.5503123-16h3.0647753l4.9186414 12.2992469 4.9184245-12.2992469h3.0981588z"/><path d="m82.1262676 8.73503657h2.4869262v3.07924483c1.282026-2.05247218 3.6807463-3.07924483 7.1955093-3.07924483v2.03100953c-3.8465125 0-6.2228555 1.2559936-7.1290291 3.7671224v9.9256121h-2.5534064z"/><path d="m82.2892094 24.2977464h2.2275228v-9.7925437l.0095593-.0261844c.9146465-2.5347377 3.3094563-3.8373053 7.1194698-3.8731479v-1.70906992c-3.3503004.03155008-5.6690707 1.04115262-6.8937411 3.00197932l-.3017682.4829094v-3.48574723h-2.1610426zm2.5534064.3219396h-2.87929v-16.04568362h2.8128098v2.71802862c1.3684937-1.80414944 3.7309324-2.71802862 7.0325675-2.71802862h.1629418v2.35294912h-.1629418c-3.7387536 0-6.082291 1.2227266-6.9660873 3.6342687z"/><path d="m66.0743723 13.8734928c.4240832-1.0126073 1.2294502-1.9994594 2.0971695-2.6195151l-.019553.0240382c2.0193919-1.48929253 4.6251569-1.47984897 6.8337786.0010731l-7.4060302 9.0756916c-1.8557983-1.7163672-2.5651382-4.1478696-1.5053649-6.4812878m14.0142973 1.7964229h-2.1138981c-.011949.0903577-.0165114.1852226-.010211.2852385-.0349782 1.5210572-.6852245 2.90969-1.5890083 4.0169475-1.9644262 2.4074643-4.9966643 2.772973-7.2502578 1.4944436l7.7597224-9.5090222c.805367-.9868522.4169138-1.6934023-.1585966-2.07243248l.0247671.019531c-3.1586809-2.43600954-6.7757713-2.53645469-9.7508711-.41744833l-.019553.02403816c-1.2796362.92740065-2.3648285 2.20786165-2.9468565 3.61108905-2.3867714 5.486709 2.2946548 11.0818044 7.876606 11.2376232 2.3609179.0135215 4.6242879-1.2819634 6.1565925-3.1597297 1.3013617-1.5453101 2.1786403-3.5076392 2.0343825-5.4495787-.0032588-.0279015-.0086902-.0538713-.0128181-.0806996" transform="matrix(.98480775 .17364818 -.17364818 .98480775 3.89823 -12.214698)"/><path d="m67.9747298 11.6096351c-.7397557.6116852-1.3934781 1.4749126-1.7497775 2.3252624l-.0019553.0042925c-.9670052 2.129523-.4642755 4.4270986 1.3411195 6.1782353l7.1822568-8.8013991c-2.1169397-1.34399043-4.5919169-1.3139427-6.4970322.0912162zm-.3782422 8.981256-.1281808-.1184738c-1.9841965-1.8352702-2.5757838-4.3878219-1.5436019-6.662647.4247349-1.0121781 1.2487858-2.0415263 2.1514834-2.6862639l.9917723-.7082671-.1772807.2163434c1.9220614-.97934025 4.2145437-.80806839 6.1863566.5144594l.1464303.0980843zm-.4829594-10.98608108-.036499.03605723c-1.3122245.95122415-2.3391923 2.20914945-2.8921081 3.54240855-1.016105 2.335779-.7992838 4.8207234.6094023 7.0000398 1.5499023 2.3975914 4.2784168 3.936248 7.1209906 4.0156598 2.1738607.0163116 4.4309304-1.1463196 6.0249356-3.099849 1.3810946-1.6397456 2.1080322-3.5550716 2.0035322-5.2682194h-1.8186476c-.000869.0382035-.0002173.0757631.0019553.1141812-.0410613 1.8196026-.9061736 3.2477266-1.6246383 4.128124-1.892949 2.3198967-4.9601652 2.9502544-7.4581715 1.5328617l-.1655488-.0937917 7.8794303-9.6558267c.3243628-.3974881.462972-.7670747.4114824-1.0982433-.0540967-.348124-.3076341-.5867885-.5175032-.7284419l-.0013035.001717c-3.0409283-2.34522259-6.6043565-2.50426075-9.5373087-.42667728zm4.8328534 14.91610488h-.0367162c-2.9527225-.0826311-5.7829127-1.6781637-7.3899532-4.1643958-1.4473576-2.2389825-1.6789522-4.8988474-.635473-7.2977266.5720343-1.3789745 1.6311559-2.680469 2.9824865-3.6647456l.038237-.03755962c3.0489667-2.17116057 6.7518732-2.02285373 9.9118576.39469793.2674418.17599365.6013638.48527029.6750135.95830689.0656112.4241017-.0958098.8780365-.4799179 1.3491414l-7.6380592 9.3596423c2.3255052 1.2165024 5.1270176.5949444 6.8748399-1.5472416.6867453-.8413355 1.5136206-2.2042131 1.5529438-3.9195072-.0063004-.0905723-.0023898-.197027.0117318-.3026232l.018684-.1399364h2.3958961l.0260707.1616137c.0032588.0199602.0069522.0399205.009342.0609539.1355675 1.820461-.6196133 3.8484658-2.0710988 5.5714865-1.6450603 2.0164149-3.9779522 3.2178934-6.2458846 3.2178934z" transform="matrix(.98480775 .17364818 -.17364818 .98480775 3.898767 -12.215151)"/><path d="m32.8923852 13.8734928c.4240832-1.0126073 1.2294501-1.9994594 2.0971695-2.6195151l-.019553.0240382c2.0193919-1.48929253 4.6251569-1.47984897 6.8337785.0010731l-7.4060301 9.0756916c-1.8557983-1.7163672-2.5651382-4.1478696-1.5053649-6.4812878m14.0142973 1.7964229h-2.1138981c-.0119491.0903577-.0165114.1852226-.010211.2852385-.0349782 1.5210572-.6852245 2.90969-1.5890083 4.0169475-1.9644262 2.4074643-4.9966643 2.772973-7.2502578 1.4944436l7.7597224-9.5090222c.805367-.9868522.4169138-1.6934023-.1585966-2.07243248l.0247671.019531c-3.1586809-2.43600954-6.7757713-2.53645469-9.7508711-.41744833l-.019553.02403816c-1.2796362.92740065-2.3648285 2.20786165-2.9468566 3.61108905-2.3867713 5.486709 2.2946549 11.0818044 7.8766061 11.2376232 2.3609179.0135215 4.6242879-1.2819634 6.1565925-3.1597297 1.3013617-1.5453101 2.1786403-3.5076392 2.0343825-5.4495787-.0032588-.0279015-.0086902-.0538713-.0128181-.0806996" transform="matrix(.98480775 .17364818 -.17364818 .98480775 3.394121 -6.452707)"/><path d="m34.7927427 11.6096351c-.7397557.6116852-1.3934781 1.4749126-1.7497775 2.3252624l-.0019553.0042925c-.9670052 2.129523-.4642755 4.4270986 1.3411195 6.1782353l7.1822568-8.8013991c-2.1169397-1.34399043-4.5919169-1.3139427-6.4970322.0912162zm-.3782422 8.981256-.1281809-.1184738c-1.9841964-1.8352702-2.5757837-4.3878219-1.5436018-6.662647.4247349-1.0121781 1.2487858-2.0415263 2.1514833-2.6862639l.9917724-.7082671-.1772807.2163434c1.9220614-.97934025 4.2145437-.80806839 6.1863566.5144594l.1464303.0980843zm-.4829594-10.98608108-.036499.03605723c-1.3122245.95122415-2.3391923 2.20914945-2.8921081 3.54240855-1.016105 2.335779-.7992838 4.8207234.6094023 7.0000398 1.5499023 2.3975914 4.2784168 3.936248 7.1209906 4.0156598.0112973 0 .0230291.0002146.0345437.0002146 2.1666913 0 4.4046424-1.1566216 5.9903919-3.1000636 1.3810946-1.6397456 2.1080322-3.5550716 2.0035322-5.2682194h-1.8186476c-.000869.0382035-.0002173.0757631.0019553.1141812-.0410613 1.8196026-.9061736 3.2477266-1.6246383 4.128124-1.892949 2.3198967-4.959948 2.9502544-7.4581715 1.5328617l-.1655488-.0937917 7.8794303-9.6558267c.3243628-.3974881.4629719-.7670747.4114823-1.0982433-.0540966-.348124-.3076341-.5867885-.5175031-.7284419l-.0013035.001717c-3.0411455-2.34522259-6.6043566-2.50426075-9.5373087-.42667728zm4.8328534 14.91610488h-.0367162c-2.9527225-.0826311-5.7829127-1.6781637-7.3899532-4.1643958-1.4473576-2.2389825-1.6789522-4.8988474-.635473-7.2977266.5720343-1.3789745 1.6311559-2.680469 2.9824865-3.6647456l.038237-.03755962c3.0489667-2.17116057 6.7518732-2.02285373 9.9118576.39469793.2674417.17599365.6013638.48527029.6750135.95830689.0656112.4241017-.0958098.8780365-.4799179 1.3491414l-7.6380593 9.3596423c2.3257225 1.2165024 5.1270177.5949444 6.87484-1.5472416.6867453-.8413355 1.5136205-2.2042131 1.5529438-3.9195072-.0063004-.0905723-.0023898-.197027.0117318-.3026232l.018684-.1399364h2.3958961l.0260707.1616137c.0032588.0199602.0069521.0399205.009342.0609539.1355675 1.820461-.6196133 3.8484658-2.0710988 5.5714865-1.6450603 2.0164149-3.9779522 3.2178934-6.2458846 3.2178934z" transform="matrix(.98480775 .17364818 -.17364818 .98480775 3.394658 -6.453159)"/></g><path d="m101.878723 23.4264706c-1.8790448-.9711844-3.3381342-2.3583148-4.3768338-4.1601034-1.0393514-1.8015739-1.5585925-3.9031955-1.5585925-6.3059379 0-2.401884.5192411-4.50414949 1.5585925-6.30593804 1.0386996-1.80157393 2.497789-3.1936407 4.3768338-4.17641495 1.878827-.98277424 4.034004-1.47426868 6.466182-1.47426868 1.658095 0 3.138693.17534976 4.443314.52433227 1.303969.3496264 2.486926.90636725 3.548003 1.67065183v3.96372019c-.973306-.82996025-2.089131-1.43005564-3.348997-1.80178855-1.2603-.37108903-2.685932-.55695548-4.277765-.55695548-1.591616 0-3.033759.33331478-4.3273.99930047-1.293106.66620032-2.315945 1.61635135-3.066998 2.84980922-.751922 1.23410175-1.12734 2.66973772-1.12734 4.30755172 0 1.6601351.353257 3.1069316 1.061077 4.3406041.70695 1.2338871 1.691118 2.1840381 2.951201 2.8498092 1.259866.666415 2.696795.9993005 4.310354.9993005 1.701981 0 3.10567-.2837361 4.211284-.8518522v-5.1428775h-3.912775v-3.3086805h8.12406v10.6791654c-2.055891 1.5721383-4.918886 2.3583147-8.588118 2.3583147-2.432178 0-4.587355-.4863434-6.466182-1.4577424" fill="#fff"/><path d="m119.419993 8.66923211h4.045084v2.52228939c.641122-.8516376 1.553161-1.48478541 2.735684-1.89987285 1.182523-.41444356 2.536895-.62241654 4.06203-.62241654v3.14470589c-1.613992 0-3.01225.2457472-4.194339.737027-1.183174.4914945-2.006356 1.2613593-2.470632 2.3095946v9.5324166h-4.177827z" fill="#fff"/><path d="m143.891177 20.2162822c.906174-.9499364 1.359587-2.1782432 1.359587-3.6851351 0-1.5940302-.447765-2.8444436-1.343075-3.7508109-.895311-.9059379-2.11694-1.3594435-3.664018-1.3594435-1.54773 0-2.768707.4535056-3.664018 1.3594435-.89531.9063673-1.342857 2.1567807-1.342857 3.7508109 0 1.5068919.452761 2.7351987 1.359369 3.6851351.906173.950151 2.122154 1.4251192 3.647506 1.4251192 1.525135 0 2.740898-.4749682 3.647506-1.4251192m-8.538584 3.6690381c-1.404124-.6662003-2.492358-1.6266534-3.266005-2.8828616-.773865-1.2555644-1.16058-2.7459301-1.16058-4.4713116 0-1.6813832.381284-3.1500716 1.144068-4.4058506.762568-1.255779 1.851019-2.22760731 3.266006-2.91548489 1.414552-.68787759 3.050704-1.03192369 4.907589-1.03192369 1.857102 0 3.486954.3440461 4.891078 1.03192369 1.403472.68787758 2.491923 1.65970589 3.266005 2.91548489.773431 1.255779 1.16058 2.7244674 1.16058 4.4058506 0 1.7253815-.387149 3.2157472-1.16058 4.4713116-.774082 1.2562082-1.862533 2.2166613-3.266005 2.8828616-1.404124.6657711-3.033976.9988713-4.891078.9988713-1.856885 0-3.487389-.3331002-4.891078-.9988713" fill="#fff"/><path d="m153.473979 23.1644762c-1.061077-1.1465342-1.591615-2.6695231-1.591615-4.5696105v-9.92561212h4.178045v9.53241652c0 2.293283 1.083019 3.4396026 3.249711 3.4396026.950059 0 1.84537-.2236407 2.685932-.671566.839911-.4472814 1.546861-1.1186328 2.122154-2.0144833v-10.28596982h4.178045v15.72374402h-4.045519v-2.1293084c-.751705.8958505-1.647016 1.5560413-2.685933 1.9818601-1.039351.4258187-2.133451.6387281-3.282733.6387281-2.144314 0-3.746793-.5732671-4.808087-1.7198012" fill="#fff"/><path d="m171.445959 8.66923211h4.045084v2.12930839c.751488-.89520664 1.646798-1.55604129 2.685932-1.98186005 1.038917-.42581876 2.133234-.63872814 3.282952-.63872814 2.143879 0 3.747009.57326709 4.808086 1.71980127 1.06086 1.14631952 1.591615 2.66973772 1.591615 4.56961052v9.9256121h-4.178262v-9.5324166c0-2.2930683-1.083237-3.4398172-3.249493-3.4398172-.950711 0-1.846022.2242846-2.685933.671566-.840128.4479253-1.547512 1.1194913-2.122154 2.014698v10.2859698h-4.177827z" fill="#fff"/><path d="m202.780425 20.6914436c.928551-.6331479 1.580318-1.485 1.956605-2.5551272v-3.1775437c-.35391-1.069698-1.00068-1.9269158-1.939876-2.5714388-.939848-.6438792-2.005922-.9664627-3.199742-.9664627-1.503627 0-2.74155.4807631-3.713987 1.4412162-.973088.9613116-1.458872 2.1949841-1.458872 3.701876 0 1.5066773.485784 2.7300477 1.458872 3.6686089.972437.9394198 2.21036 1.4088077 3.713987 1.4088077 1.19382 0 2.254679-.3163593 3.183013-.9499364m-8.538367 3.1610174c-1.271163-.6880922-2.266194-1.6594912-2.984224-2.9152702-.718682-1.255779-1.077806-2.7135215-1.077806-4.3732274 0-1.6380286.359124-3.0901907 1.077806-4.3569157.71803-1.2662957 1.713061-2.25465024 2.984224-2.96463435 1.270946-.70912559 2.713307-1.0645469 4.327299-1.0645469 2.608155 0 4.664046.67736089 6.167673 2.03100955v-10.02391098h4.177827v24.20792528h-4.045301v-1.8344118c-.906608.8301749-1.846022 1.4249046-2.818458 1.785477-.973089.3601431-2.133669.5402146-3.481741.5402146-1.613992 0-3.056353-.3438315-4.327299-1.0317091" fill="#fff"/><path d="m6.04879023 23.2615087c-1.84602183-.9827742-3.28859979-2.374841-4.32729938-4.1766295-1.03935135-1.801574-1.55859251-3.8926789-1.55859251-6.2731002 0-2.379992.51924116-4.47131159 1.55859251-6.27310014 1.03869959-1.80178856 2.48127755-3.19900636 4.32729938-4.19294118 1.84537006-.99350557 3.94036694-1.49036566 6.28368707-1.49036566 3.2049564 0 5.8576487.83017488 7.958077 2.48945151v2.48966614c-1.9894106-1.76895072-4.5760572-2.6536407-7.7590707-2.6536407-1.8794792 0-3.5595177.39319555-5.04011541 1.17958664-1.48146673.78617647-2.64204678 1.9054531-3.48195738 3.35761526-.84034511 1.45259142-1.26008316 3.15028613-1.26008316 5.09372813 0 1.9438712.4253867 3.6417806 1.2765946 5.0939428.85077338 1.4523768 2.01721933 2.5712241 3.49846881 3.3574006 1.48059771.7863911 3.14999064 1.1795867 5.00709254 1.1795867 1.6578784 0 3.1384761-.2180605 4.4430966-.6552544 1.3041861-.4365501 2.5088691-1.1572655 3.6144834-2.1619316v2.5222893c-1.9679023 1.7253816-4.7200977 2.5877504-8.2565863 2.5877504-2.34332013 0-4.43831701-.4912798-6.28368707-1.4740541" fill="#fecc04"/><path d="m12.3324339.37235533c-2.3046487 0-4.39269336.49492845-6.20569232 1.47104928-1.81060915.97483307-3.24514865 2.36475358-4.26364345 4.13112878-1.02001559 1.76809221-1.53730146 3.85189984-1.53730146 6.19347381 0 2.3415739.51728587 4.4251669 1.53730146 6.1932591 1.0184948 1.7665898 2.45281705 3.15093 4.26299168 4.1146025 1.81278171.9653895 3.90104369 1.4549523 6.20634409 1.4549523 3.4461102 0 6.1689761-.8409062 8.0936445-2.4997535v-2.0902465c-1.0443483.8919873-2.1862443 1.5491733-3.399183 1.9552465-1.3141798.4401987-2.8267141.6636248-4.4954553.6636248-1.8760031 0-3.58645736-.403283-5.08421827-1.1984738-1.50188877-.7971224-2.70048857-1.9473052-3.562342-3.4189984-.86163617-1.4695469-1.29832016-3.2108108-1.29832016-5.174213 0-1.9631876.43103534-3.7040223 1.28137422-5.1735692.85164241-1.47255167 2.04481081-2.62294913 3.54626507-3.41985692 1.49776092-.79519078 3.21951244-1.19847377 5.11724114-1.19847377 3.0672162 0 5.6204054.82781399 7.5961289 2.46155008v-2.05891097c-2.0524147-1.59682035-4.6746912-2.40639109-7.7951351-2.40639109m0 23.88040537c-2.35983161 0-4.50023494-.5024404-6.3608129-1.4933704-1.86492308-.9928617-3.34247921-2.4190541-4.39160707-4.2386566-1.04847609-1.8172416-1.58010083-3.9544913-1.58010083-6.3527265 0-2.39823534.53162474-4.53569957 1.58010083-6.35294122 1.04869335-1.81895867 2.52603222-3.2505167 4.39073805-4.25453895 1.86144698-1.00209062 4.00185031-1.51011129 6.36168192-1.51011129 3.2273337 0 5.9391195.84949126 8.0599698 2.52486486l.0610489.04829094v2.92836248l-.2720042-.24166931c-1.9494355-1.73332274-4.5230467-2.61221781-7.6500083-2.61221781-1.8434147 0-3.51324218.39019078-4.96298958 1.16005564-1.44692308.76793323-2.59664033 1.87669317-3.41743243 3.29601749-.82187838 1.42061208-1.23857485 3.10736087-1.23857485 5.01388717 0 1.9063116.42212786 3.5928457 1.25465177 5.0130286.83100312 1.4191097 1.98658628 2.5280842 3.43437838 3.2966613 1.4497474.7698649 3.10849481 1.1600557 4.92996671 1.1600557 1.6331113 0 3.1102329-.2176312 4.3907381-.6466693 1.2763773-.4273212 2.4730218-1.1433148 3.5564761-2.1280207l.2733077-.2483227v2.9614149l-.0547485.0482909c-1.9891933 1.7440541-4.8035239 2.6283148-8.3647796 2.6283148" fill="#fecc04" mask="url(#a)" transform="translate(0 .643879)"/></g></svg>